<?xml version="1.0" encoding="UTF-8" standalone="no"?><svg xmlns="http://www.w3.org/2000/svg" xmlns:xlink="http://www.w3.org/1999/xlink" clip-rule="evenodd" stroke-miterlimit="10" viewBox="0 0 1024 768"><desc>SVG generated by Keynote</desc><defs></defs><g transform="matrix(1.00, 0.00, -0.00, -1.00, 0.0, 768.0)"><path d="M 0.0 768.0 L 1024.0 768.0 L 1024.0 0.0 L 0.0 0.0 Z M 0.0 768.0 " fill="#000000"></path><image xlink:href="081296CFB928F2F088B970EE2C0664BD.png" width="284.00" height="395.00" transform="matrix(1.00, 0.00, -0.00, -1.00, 370.0, 602.0)"></image><text xml:space="preserve" font-family="Helvetica-Light,Helvetica" font-size="60.0" fill="#FEFFFF" transform="matrix(1.00, 0.00, -0.00, -1.00, 369.6, 193.3)">N</text><text xml:space="preserve" font-family="Helvetica-Light,Helvetica" font-size="60.0" fill="#FEFFFF" transform="matrix(1.00, 0.00, -0.00, -1.00, 412.9, 193.3)">A</text><text xml:space="preserve" font-family="Helvetica-Light,Helvetica" font-size="60.0" fill="#FEFFFF" transform="matrix(1.00, 0.00, -0.00, -1.00, 453.0, 193.3)">L</text><text xml:space="preserve" font-family="Helvetica-Light,Helvetica" font-size="60.0" fill="#FEFFFF" transform="matrix(1.00, 0.00, -0.00, -1.00, 486.3, 193.3)">A</text><text xml:space="preserve" font-family="Helvetica-Light,Helvetica" font-size="60.0" fill="#FEFFFF" transform="matrix(1.00, 0.00, -0.00, -1.00, 526.4, 193.3)">N</text><text xml:space="preserve" font-family="Helvetica-Light,Helvetica" font-size="60.0" fill="#FEFFFF" transform="matrix(1.00, 0.00, -0.00, -1.00, 569.7, 193.3)">G</text><text xml:space="preserve" font-family="Helvetica-Light,Helvetica" font-size="60.0" fill="#FEFFFF" transform="matrix(1.00, 0.00, -0.00, -1.00, 616.4, 193.3)">A</text></g></svg>