<?xml version="1.0" encoding="UTF-8" standalone="no"?><svg xmlns="http://www.w3.org/2000/svg" xmlns:xlink="http://www.w3.org/1999/xlink" clip-rule="evenodd" stroke-miterlimit="10" viewBox="0 0 360 103"><desc>SVG generated by Keynote</desc><defs><pattern id="38228897-6C9E-4C1F-A2D1-85A2AC3A5C4F" patternUnits="userSpaceOnUse" width="256" height="256" viewBox="0 0 256 256"><image xlink:href="../../AE69967D-6B00-4F31-84F5-C1414AD20152/assets/2E46DA311AF3B73A4E9A2E7FFBE936DB.png" width="256.00" height="256.00"></image></pattern></defs><g transform="matrix(1.00, 0.00, -0.00, -1.00, 0.0, 103.0)"><g><clipPath id="clip0x6080010bcf80"><path d="M 1.0 101.0 L 359.0 101.0 L 359.0 1.0 L 1.0 1.0 Z M 1.0 101.5 "></path></clipPath><g clip-path="url(#clip0x6080010bcf80)"><path d="M 1.0 1.0 L 359.0 1.0 L 359.0 101.0 L 1.0 101.0 Z M 1.0 1.0 " fill="url(#38228897-6C9E-4C1F-A2D1-85A2AC3A5C4F)"></path></g></g><g><clipPath id="clip0x6000012b3fe0"><path d="M -1.5 1.5 L 361.5 1.5 L 361.5 101.5 L -1.5 101.5 Z M -1.5 1.5 "></path></clipPath><g clip-path="url(#clip0x6000012b3fe0)"><text xml:space="preserve" font-family="Helvetica-Light,Helvetica" font-size="26.0" fill="#FEFFFF" transform="matrix(1.00, 0.00, -0.00, -1.00, 125.0, 41.5)">В</text><text xml:space="preserve" font-family="Helvetica-Light,Helvetica" font-size="26.0" fill="#FEFFFF" transform="matrix(1.00, 0.00, -0.00, -1.00, 142.4, 41.5)">е</text><text xml:space="preserve" font-family="Helvetica-Light,Helvetica" font-size="26.0" fill="#FEFFFF" transform="matrix(1.00, 0.00, -0.00, -1.00, 155.9, 41.5)">р</text><text xml:space="preserve" font-family="Helvetica-Light,Helvetica" font-size="26.0" fill="#FEFFFF" transform="matrix(1.00, 0.00, -0.00, -1.00, 170.8, 41.5)">н</text><text xml:space="preserve" font-family="Helvetica-Light,Helvetica" font-size="26.0" fill="#FEFFFF" transform="matrix(1.00, 0.00, -0.00, -1.00, 184.8, 41.5)">у</text><text xml:space="preserve" font-family="Helvetica-Light,Helvetica" font-size="26.0" fill="#FEFFFF" transform="matrix(1.00, 0.00, -0.00, -1.00, 196.8, 41.5)">т</text><text xml:space="preserve" font-family="Helvetica-Light,Helvetica" font-size="26.0" fill="#FEFFFF" transform="matrix(1.00, 0.00, -0.00, -1.00, 208.3, 41.5)">с</text><text xml:space="preserve" font-family="Helvetica-Light,Helvetica" font-size="26.0" fill="#FEFFFF" transform="matrix(1.00, 0.00, -0.00, -1.00, 221.8, 41.5)">я</text></g></g></g></svg>