<?xml version="1.0" encoding="UTF-8" standalone="no"?>
<svg width="42px" height="35px" viewBox="0 0 42 35" version="1.1" xmlns="http://www.w3.org/2000/svg" xmlns:xlink="http://www.w3.org/1999/xlink">
    <!-- Generator: Sketch 41.1 (35376) - http://www.bohemiancoding.com/sketch -->
    <title>cup-none</title>
    <desc>Created with Sketch.</desc>
    <defs></defs>
    <g id="Rating" stroke="none" stroke-width="1" fill="none" fill-rule="evenodd">
        <g id="2" transform="translate(-1171.000000, -480.000000)">
            <g id="top" transform="translate(135.000000, 153.000000)">
                <g id="4" transform="translate(592.000000, 201.000000)">
                    <g id="cup-none" transform="translate(444.000000, 126.000000)">
                        <path d="M33.4694812,3.93960898 L33.4694812,0 L8.52271883,0 L8.52271883,3.93960898 L0,3.93960898 L0,10.4091321 C0,15.0578707 3.82716355,18.8390388 8.53138542,18.8390388 L9.63897487,18.8390388 C11.2509595,22.349573 14.4671289,24.9848288 18.3731584,25.8078645 L18.3731584,31.0955049 L15.3173208,31.0955049 C14.3778631,31.0955049 13.6074037,31.8483128 13.6074037,32.7852546 L13.6074037,35 L28.3925963,35 L28.3925963,32.7852546 C28.3925963,31.8568772 27.6308035,31.0955049 26.6835459,31.0955049 L23.6268416,31.0955049 L23.6268416,25.8078645 C27.5337378,24.9762645 30.7490405,22.349573 32.3618918,18.8390388 L33.4694812,18.8390388 C38.1728364,18.8390388 42,15.0578707 42,10.4091321 L42,3.93960898 L33.4694812,3.93960898 Z" id="cup" fill="#D0E5FF"></path>
                        <path d="M8.1627182,14 C5.86705112,14 4,12.2422285 4,10.0799354 L4,8 L8.1627182,8 L8.1627182,13.2410174 C8.1627182,13.4969721 8.17129052,13.7529269 8.18843516,14 L8.1627182,14 Z M37,10.0799354 C37,12.2422285 35.1338061,14 32.838139,14 L32.8115648,14 C32.8287095,13.7529269 32.838139,13.4969721 32.838139,13.2410174 L32.838139,8 L37,8 L37,10.0799354 Z" id="star" fill="#FFFFFF"></path>
                    </g>
                </g>
            </g>
        </g>
    </g>
</svg>