<?xml version="1.0" encoding="UTF-8" standalone="no"?>
<svg width="46px" height="39px" viewBox="0 0 46 39" version="1.1" xmlns="http://www.w3.org/2000/svg" xmlns:xlink="http://www.w3.org/1999/xlink">
    <!-- Generator: Sketch 41.1 (35376) - http://www.bohemiancoding.com/sketch -->
    <title>cup-silver</title>
    <desc>Created with Sketch.</desc>
    <defs>
        <linearGradient x1="672.320614%" y1="362.46054%" x2="672.320604%" y2="-323.549852%" id="linearGradient-1">
            <stop stop-color="#025AED" offset="0%"></stop>
            <stop stop-color="#FEFEFE" offset="100%"></stop>
        </linearGradient>
        <path d="M33.4694812,3.93960898 L33.4694812,0 L8.52271883,0 L8.52271883,3.93960898 L0,3.93960898 L0,10.4091321 C0,15.0578707 3.82716355,18.8390388 8.53138542,18.8390388 L9.63897487,18.8390388 C11.2509595,22.349573 14.4671289,24.9848288 18.3731584,25.8078645 L18.3731584,31.0955049 L15.3173208,31.0955049 C14.3778631,31.0955049 13.6074037,31.8483128 13.6074037,32.7852546 L13.6074037,35 L28.3925963,35 L28.3925963,32.7852546 C28.3925963,31.8568772 27.6308035,31.0955049 26.6835459,31.0955049 L23.6268416,31.0955049 L23.6268416,25.8078645 C27.5337378,24.9762645 30.7490405,22.349573 32.3618918,18.8390388 L33.4694812,18.8390388 C38.1728364,18.8390388 42,15.0578707 42,10.4091321 L42,3.93960898 L33.4694812,3.93960898 Z" id="path-2"></path>
        <mask id="mask-3" maskContentUnits="userSpaceOnUse" maskUnits="objectBoundingBox" x="-2" y="-2" width="46" height="39">
            <rect x="-2" y="-2" width="46" height="39" fill="white"></rect>
            <use xlink:href="#path-2" fill="black"></use>
        </mask>
    </defs>
    <g id="Rating" stroke="none" stroke-width="1" fill="none" fill-rule="evenodd">
        <g id="2" transform="translate(-597.000000, -277.000000)">
            <g id="top" transform="translate(135.000000, 153.000000)">
                <g id="1">
                    <g id="cup-big" transform="translate(444.000000, 126.000000)">
                        <g id="cup-silver" transform="translate(20.000000, 0.000000)">
                            <g id="cup">
                                <use fill="url(#linearGradient-1)" fill-rule="evenodd" xlink:href="#path-2"></use>
                                <use stroke="#FFFFFF" mask="url(#mask-3)" stroke-width="4" xlink:href="#path-2"></use>
                            </g>
                            <path d="M8.52271883,14.5756968 C6.2018076,14.5756968 4.31422558,12.711234 4.31422558,10.4176964 L4.31422558,8.2115154 L8.52271883,8.2115154 L8.52271883,13.7706462 C8.52271883,14.0421367 8.53138542,14.3136271 8.54871858,14.5756968 L8.52271883,14.5756968 Z M24.9710288,17.6485918 L21,15.5854357 L17.0289712,17.6485918 L17.7872973,13.2790516 L14.5745945,10.1847456 L19.0144856,9.54670027 L21,5.57112095 L22.9855144,9.54670027 L27.4254055,10.1847456 L24.2127027,13.2790516 L24.9710288,17.6485918 Z M37.6771078,10.4176964 C37.6771078,12.711234 35.7903925,14.5756968 33.4694812,14.5756968 L33.4426148,14.5756968 C33.459948,14.3136271 33.4694812,14.0421367 33.4694812,13.7706462 L33.4694812,8.2115154 L37.6771078,8.2115154 L37.6771078,10.4176964 Z" id="star" fill="#FFFFFF"></path>
                        </g>
                    </g>
                </g>
            </g>
        </g>
    </g>
</svg>