<?xml version="1.0" encoding="UTF-8" standalone="no"?>
<svg width="17px" height="17px" viewBox="0 0 17 17" version="1.1" xmlns="http://www.w3.org/2000/svg" xmlns:xlink="http://www.w3.org/1999/xlink">
    <!-- Generator: Sketch 41.1 (35376) - http://www.bohemiancoding.com/sketch -->
    <title>icon-monet</title>
    <desc>Created with Sketch.</desc>
    <defs></defs>
    <g id="Main" stroke="none" stroke-width="1" fill="none" fill-rule="evenodd">
        <g id="1" transform="translate(-367.000000, -837.000000)" fill="#ADCDF6">
            <g id="tournament" transform="translate(135.000000, 660.000000)">
                <g id="1" transform="translate(1.000000, 71.000000)">
                    <g id="icon-monet" transform="translate(231.000000, 106.000000)">
                        <path d="M8.4897,0.999 C4.3597,0.999 0.9987,4.359 0.9987,8.489 C0.9987,12.62 4.3597,15.98 8.4897,15.98 C12.6197,15.98 15.9797,12.62 15.9797,8.489 C15.9797,4.359 12.6197,0.999 8.4897,0.999 M8.4897,16.979 C3.8087,16.979 -0.0003,13.17 -0.0003,8.489 C-0.0003,3.808 3.8087,0 8.4897,0 C13.1707,0 16.9787,3.808 16.9787,8.489 C16.9787,13.17 13.1707,16.979 8.4897,16.979" id="Fill-1"></path>
                        <path d="M9.3648,8.2367 C9.4118,8.1777 9.4498,8.1307 9.4488,8.1307 C9.4478,8.1307 9.4828,8.0827 9.5298,8.0237 L11.3378,5.7837 C11.3848,5.7257 11.4238,5.6157 11.4238,5.5407 L11.4238,5.0947 C11.4238,5.0197 11.3618,4.9577 11.2868,4.9577 L8.9948,4.9577 L8.9948,3.7717 L8.0628,3.7717 L8.0628,4.9577 L5.7708,4.9577 C5.6948,4.9577 5.6338,5.0197 5.6338,5.0947 L5.6348,5.6427 L5.6348,5.9167 L5.6348,6.9667 C5.6348,7.0417 5.6968,7.1037 5.7718,7.1037 L6.2788,7.1037 C6.3538,7.1037 6.4158,7.0417 6.4158,6.9667 L6.4158,5.9167 C6.4158,5.8407 6.4778,5.7797 6.5528,5.7797 L9.8928,5.7797 C9.9678,5.7797 9.9908,5.8277 9.9428,5.8857 L7.6138,8.7567 C7.5668,8.8147 7.5288,8.8627 7.5298,8.8627 C7.5318,8.8627 7.4958,8.9107 7.4488,8.9697 L5.6418,11.2087 C5.5938,11.2677 5.5558,11.3777 5.5558,11.4527 L5.5558,11.8977 C5.5558,11.9737 5.6168,12.0347 5.6928,12.0347 L8.0628,12.0347 L8.0628,13.2067 L8.9948,13.2067 L8.9948,12.0347 L11.2088,12.0347 C11.2838,12.0347 11.3458,11.9737 11.3448,11.8977 L11.3438,11.3507 L11.3438,11.0767 L11.3438,10.0267 C11.3438,9.9507 11.2818,9.8897 11.2068,9.8897 L10.6998,9.8897 C10.6248,9.8897 10.5628,9.9507 10.5628,10.0267 L10.5628,11.0767 C10.5628,11.1517 10.5018,11.2137 10.4258,11.2137 L7.0868,11.2137 C7.0108,11.2137 6.9888,11.1657 7.0358,11.1067 L9.3648,8.2367 Z" id="Fill-4"></path>
                    </g>
                </g>
            </g>
        </g>
    </g>
</svg>