<?xml version="1.0" encoding="UTF-8" standalone="no"?>
<svg width="21px" height="15px" viewBox="0 0 21 15" version="1.1" xmlns="http://www.w3.org/2000/svg" xmlns:xlink="http://www.w3.org/1999/xlink">
    <!-- Generator: Sketch 41.1 (35376) - http://www.bohemiancoding.com/sketch -->
    <title>eye</title>
    <desc>Created with Sketch.</desc>
    <defs>
        <path d="M10.4530191,14.4287634 C16.8529148,14.4287634 20.0814814,9.47726301 20.0814814,9.47726301 C21.1637242,8.22750817 21.1979235,6.16534866 20.0814814,4.95150038 C20.0814814,4.95150038 16.8529148,-2.84217094e-14 10.4530191,-2.84217094e-14 C4.05312335,-2.84217094e-14 0.824556718,4.95150038 0.824556718,4.95150038 C-0.257686081,6.20125522 -0.291885426,8.26341474 0.824556718,9.47726301 C0.824556718,9.47726301 4.05312335,14.4287634 10.4530191,14.4287634 Z" id="path-1"></path>
        <mask id="mask-2" maskContentUnits="userSpaceOnUse" maskUnits="objectBoundingBox" x="0" y="0" width="20.9060381" height="14.4287634" fill="white">
            <use xlink:href="#path-1"></use>
        </mask>
        <circle id="path-3" cx="10.4530191" cy="7.5" r="3.5"></circle>
        <mask id="mask-4" maskContentUnits="userSpaceOnUse" maskUnits="objectBoundingBox" x="0" y="0" width="7" height="7" fill="white">
            <use xlink:href="#path-3"></use>
        </mask>
    </defs>
    <g id="News" stroke="none" stroke-width="1" fill="none" fill-rule="evenodd">
        <g id="2" transform="translate(-384.000000, -97.000000)" stroke="#000000" stroke-width="2">
            <g id="news" transform="translate(133.000000, 94.000000)">
                <g id="eye" transform="translate(251.000000, 3.000000)">
                    <use id="Oval" mask="url(#mask-2)" xlink:href="#path-1"></use>
                    <use id="Oval-2" mask="url(#mask-4)" xlink:href="#path-3"></use>
                </g>
            </g>
        </g>
    </g>
</svg>