<?xml version="1.0" encoding="UTF-8" standalone="no"?>
<svg width="48px" height="48px" viewBox="0 0 48 48" version="1.1" xmlns="http://www.w3.org/2000/svg" xmlns:xlink="http://www.w3.org/1999/xlink">
    <!-- Generator: Sketch 41.1 (35376) - http://www.bohemiancoding.com/sketch -->
    <title>instagram</title>
    <desc>Created with Sketch.</desc>
    <defs></defs>
    <g id="Main" stroke="none" stroke-width="1" fill="none" fill-rule="evenodd">
        <g id="1" transform="translate(-136.000000, -3326.000000)">
            <g id="footer" transform="translate(0.000000, 3267.000000)">
                <g id="letf-content" transform="translate(135.000000, 60.000000)">
                    <g id="social" transform="translate(2.000000, 0.000000)">
                        <g id="instagram">
                            <path d="M45.4197268,22.7098634 C45.4197268,35.2521561 35.2526049,45.419278 22.7103122,45.419278 C10.1680195,45.419278 -0.000224390244,35.2521561 -0.000224390244,22.7098634 C-0.000224390244,10.1675707 10.1680195,0.000448780488 22.7103122,0.000448780488 C35.2526049,0.000448780488 45.4197268,10.1675707 45.4197268,22.7098634 L45.4197268,22.7098634 Z" id="Stroke-1" stroke="#76787A" stroke-width="2"></path>
                            <path d="M30.8688885,17.8917561 C30.8688885,18.3405366 30.5066658,18.7051707 30.0608533,18.7051707 L27.6378621,18.7051707 C27.1920495,18.7051707 26.8298268,18.3405366 26.8298268,17.8917561 L26.8298268,15.4526341 C26.8298268,15.0038537 27.1920495,14.6392195 27.6378621,14.6392195 L30.0608533,14.6392195 C30.5066658,14.6392195 30.8688885,15.0038537 30.8688885,15.4526341 L30.8688885,17.8917561 Z M30.8688885,30.0873659 C30.8688885,30.5361463 30.5066658,30.8996585 30.0608533,30.8996585 L15.5229061,30.8996585 C15.075979,30.8996585 14.7137564,30.5361463 14.7137564,30.0873659 L14.7137564,21.1431707 L16.5427023,21.1431707 C16.4089586,21.6637561 16.3298268,22.2079024 16.3298268,22.77 C16.3298268,26.3624878 19.2231503,29.2750732 22.7918797,29.2750732 C26.3594946,29.2750732 29.252818,26.3624878 29.252818,22.77 C29.252818,22.2079024 29.1736863,21.6637561 29.0410571,21.1431707 L30.8688885,21.1431707 L30.8688885,30.0873659 Z M22.7918797,18.7051707 C25.022057,18.7051707 26.8298268,20.5249756 26.8298268,22.77 C26.8298268,25.0150244 25.022057,26.8359512 22.7918797,26.8359512 C20.5605879,26.8359512 18.752818,25.0150244 18.752818,22.77 C18.752818,20.5249756 20.5605879,18.7051707 22.7918797,18.7051707 L22.7918797,18.7051707 Z M30.886721,12.2180488 L14.7315889,12.2180488 C13.3941512,12.2180488 12.3097122,13.3108293 12.3097122,14.6571707 L12.3097122,30.9187317 C12.3097122,32.2661951 13.3941512,33.3578537 14.7315889,33.3578537 L30.886721,33.3578537 C32.2252732,33.3578537 33.3097122,32.2661951 33.3097122,30.9187317 L33.3097122,14.6571707 C33.3097122,13.3108293 32.2252732,12.2180488 30.886721,12.2180488 L30.886721,12.2180488 Z" id="Fill-3" fill="#76787A"></path>
                        </g>
                    </g>
                </g>
            </g>
        </g>
    </g>
</svg>