<?xml version="1.0" encoding="UTF-8" standalone="no"?>
<svg width="48px" height="48px" viewBox="0 0 48 48" version="1.1" xmlns="http://www.w3.org/2000/svg" xmlns:xlink="http://www.w3.org/1999/xlink">
    <!-- Generator: Sketch 41.1 (35376) - http://www.bohemiancoding.com/sketch -->
    <title>twitter</title>
    <desc>Created with Sketch.</desc>
    <defs></defs>
    <g id="Main" stroke="none" stroke-width="1" fill="none" fill-rule="evenodd">
        <g id="1" transform="translate(-323.000000, -3326.000000)">
            <g id="footer" transform="translate(0.000000, 3267.000000)">
                <g id="letf-content" transform="translate(135.000000, 60.000000)">
                    <g id="social" transform="translate(2.000000, 0.000000)">
                        <g id="twitter" transform="translate(187.500000, 0.000000)">
                            <path d="M22.7103122,45.419278 C10.1680195,45.419278 -0.000224390244,35.2521561 -0.000224390244,22.7098634 C-0.000224390244,10.1675707 10.1680195,0.000448780488 22.7103122,0.000448780488 C35.2526049,0.000448780488 45.4197268,10.1675707 45.4197268,22.7098634 C45.4197268,35.2521561 35.2526049,45.419278 22.7103122,45.419278 Z" id="Stroke-1" stroke="#338FFF" stroke-width="2"></path>
                            <path d="M35.8181805,16.243722 C35.7834,16.2022098 35.7250585,16.1887463 35.6756927,16.2111854 C34.9441805,16.5354293 34.1756439,16.7687951 33.3835463,16.9067951 C34.2238878,16.2740146 34.8510585,15.3977707 35.1719366,14.3925024 C35.1876439,14.3442585 35.1719366,14.2915268 35.1326683,14.2601122 C35.092278,14.2286976 35.0384244,14.2253317 34.9946683,14.2511366 C34.0466195,14.8132341 33.0211561,15.2092829 31.9440829,15.4280634 C30.9881805,14.4373805 29.6553024,13.8707951 28.2753024,13.8707951 C25.4693024,13.8707951 23.1861317,16.1539659 23.1861317,18.9599659 C23.1861317,19.2999171 23.2186683,19.6353805 23.2837415,19.9618683 C19.3961805,19.7217707 15.7621805,17.8559659 13.290522,14.8244537 C13.265839,14.794161 13.2265707,14.7762098 13.1873024,14.7806976 C13.1469122,14.7829415 13.1110098,14.8053805 13.0919366,14.840161 C12.6409122,15.6131854 12.4019366,16.4984049 12.4019366,17.3993317 C12.4019366,18.9588439 13.1110098,20.4185024 14.3182293,21.3811366 C13.6966683,21.3059659 13.0896927,21.1107463 12.5421805,20.8066976 C12.506278,20.7865024 12.460278,20.7865024 12.4232537,20.8078195 C12.3862293,20.8280146 12.3626683,20.8672829 12.3615463,20.9099171 L12.3615463,20.9749902 C12.3615463,23.2166488 13.8380341,25.1834293 15.9394488,25.8375268 C15.3852049,25.926161 14.8118878,25.9205512 14.2475463,25.8128439 C14.2060341,25.8049902 14.162278,25.8195756 14.1331073,25.8509902 C14.1050585,25.8835268 14.0960829,25.9284049 14.1084244,25.9687951 C14.738961,27.9355756 16.4892049,29.3144537 18.5266683,29.4861122 C16.8269122,30.731478 14.8186195,31.3866976 12.6958878,31.3866976 C12.3043268,31.3866976 11.910522,31.3642585 11.5245707,31.3182585 C11.4695951,31.3126488 11.4146195,31.3451854 11.3966683,31.3979171 C11.3775951,31.4517707 11.3977902,31.5112341 11.4449122,31.5415268 C13.7415463,33.0146488 16.3983268,33.7932829 19.1257902,33.7932829 C28.0497902,33.7932829 33.3824244,26.5443561 33.3824244,19.5366488 C33.3824244,19.3414293 33.3790585,19.1473317 33.3712049,18.9532341 C34.333839,18.2486488 35.1595951,17.3869902 35.8260341,16.3895756 C35.8563268,16.3446976 35.852961,16.2852341 35.8181805,16.243722" id="Fill-3" fill="#338FFF"></path>
                        </g>
                    </g>
                </g>
            </g>
        </g>
    </g>
</svg>