<?xml version="1.0" encoding="UTF-8" standalone="no"?>
<svg width="48px" height="48px" viewBox="0 0 48 48" version="1.1" xmlns="http://www.w3.org/2000/svg" xmlns:xlink="http://www.w3.org/1999/xlink">
    <!-- Generator: Sketch 41.1 (35376) - http://www.bohemiancoding.com/sketch -->
    <title>facebook</title>
    <desc>Created with Sketch.</desc>
    <defs></defs>
    <g id="Main" stroke="none" stroke-width="1" fill="none" fill-rule="evenodd">
        <g id="1" transform="translate(-386.000000, -3326.000000)">
            <g id="footer" transform="translate(0.000000, 3267.000000)">
                <g id="letf-content" transform="translate(135.000000, 60.000000)">
                    <g id="social" transform="translate(2.000000, 0.000000)">
                        <g id="facebook" transform="translate(250.000000, 0.000000)">
                            <path d="M45.4197268,22.7098634 C45.4197268,35.2521561 35.2526049,45.419278 22.7103122,45.419278 C10.1680195,45.419278 -0.000224390244,35.2521561 -0.000224390244,22.7098634 C-0.000224390244,10.1675707 10.1680195,0.000448780488 22.7103122,0.000448780488 C35.2526049,0.000448780488 45.4197268,10.1675707 45.4197268,22.7098634 L45.4197268,22.7098634 Z" id="Stroke-1" stroke="#76787A" stroke-width="2"></path>
                            <path d="M31.2414634,12.3414634 L14.4414634,12.3414634 C13.2817967,12.3414634 12.3414634,13.2817967 12.3414634,14.4414634 L12.3414634,31.2414634 C12.3414634,32.4015967 13.2817967,33.3414634 14.4414634,33.3414634 L23.5582634,33.3414634 L23.5582634,25.2093301 L20.8217301,25.2093301 L20.8217301,22.0397301 L23.5582634,22.0397301 L23.5582634,19.7026634 C23.5582634,16.9903967 25.2149301,15.5133967 27.6345967,15.5133967 C28.7933301,15.5133967 29.7896634,15.5997301 30.0799301,15.6379967 L30.0799301,18.4725301 L28.4017967,18.4734634 C27.0857967,18.4734634 26.8309967,19.0987967 26.8309967,20.0162634 L26.8309967,22.0397301 L29.9693301,22.0397301 L29.5609967,25.2093301 L26.8309967,25.2093301 L26.8309967,33.3414634 L31.2414634,33.3414634 C32.4011301,33.3414634 33.3414634,32.4015967 33.3414634,31.2414634 L33.3414634,14.4414634 C33.3414634,13.2817967 32.4011301,12.3414634 31.2414634,12.3414634" id="Fill-1" fill="#76787A"></path>
                        </g>
                    </g>
                </g>
            </g>
        </g>
    </g>
</svg>