<?xml version="1.0" encoding="UTF-8" standalone="no"?>
<svg width="48px" height="48px" viewBox="0 0 48 48" version="1.1" xmlns="http://www.w3.org/2000/svg" xmlns:xlink="http://www.w3.org/1999/xlink">
    <!-- Generator: Sketch 41.1 (35376) - http://www.bohemiancoding.com/sketch -->
    <title>youtube</title>
    <desc>Created with Sketch.</desc>
    <defs></defs>
    <g id="Main" stroke="none" stroke-width="1" fill="none" fill-rule="evenodd">
        <g id="1" transform="translate(-198.000000, -3326.000000)">
            <g id="footer" transform="translate(0.000000, 3267.000000)">
                <g id="letf-content" transform="translate(135.000000, 60.000000)">
                    <g id="social" transform="translate(2.000000, 0.000000)">
                        <g id="youtube" transform="translate(62.500000, 0.000000)">
                            <path d="M45.4197268,22.7098634 C45.4197268,35.2521561 35.2526049,45.419278 22.7103122,45.419278 C10.1680195,45.419278 -0.000224390244,35.2521561 -0.000224390244,22.7098634 C-0.000224390244,10.1675707 10.1680195,0.000448780488 22.7103122,0.000448780488 C35.2526049,0.000448780488 45.4197268,10.1675707 45.4197268,22.7098634 L45.4197268,22.7098634 Z" id="Stroke-1" stroke="#338FFF" stroke-width="2"></path>
                            <path d="M19.719078,27.0188293 L19.719078,18.447122 L27.1923951,22.7340976 L19.719078,27.0188293 Z M34.463761,18.2732195 C34.3313707,16.6811707 33.3822,14.674 31.4311268,14.6021951 C25.9851756,14.236439 19.5305902,14.1365854 13.9859073,14.6021951 C12.2637122,14.7951707 11.0845415,16.8909756 10.9555171,18.4830244 C10.6840049,21.826439 10.6840049,23.7292683 10.9555171,27.0726829 C11.0856634,28.6647317 12.2356634,30.7717561 13.9870293,30.9927805 C19.5979073,31.3596585 26.021078,31.4112683 31.4322488,30.9927805 C33.129761,30.6988293 34.3336146,28.6647317 34.463761,27.0726829 C34.7363951,23.7292683 34.7363951,21.618878 34.463761,18.2732195 L34.463761,18.2732195 Z" id="Fill-3" fill="#338FFF"></path>
                        </g>
                    </g>
                </g>
            </g>
        </g>
    </g>
</svg>