<?xml version="1.0" encoding="UTF-8" standalone="no"?>
<svg width="21px" height="15px" viewBox="0 0 21 15" version="1.1" xmlns="http://www.w3.org/2000/svg" xmlns:xlink="http://www.w3.org/1999/xlink">
    <!-- Generator: Sketch 41.1 (35376) - http://www.bohemiancoding.com/sketch -->
    <title>eye</title>
    <desc>Created with Sketch.</desc>
    <defs>
        <path d="M10.5,14.4287634 C16.8998957,14.4287634 20.1284623,9.47726301 20.1284623,9.47726301 C21.2107051,8.22750817 21.2449045,6.16534866 20.1284623,4.95150038 C20.1284623,4.95150038 16.8998957,2.84217094e-14 10.5,2.84217094e-14 C4.10010428,2.84217094e-14 0.871537657,4.95150038 0.871537657,4.95150038 C-0.210705142,6.20125522 -0.244904487,8.26341474 0.871537657,9.47726301 C0.871537657,9.47726301 4.10010428,14.4287634 10.5,14.4287634 Z" id="path-1"></path>
        <mask id="mask-2" maskContentUnits="userSpaceOnUse" maskUnits="objectBoundingBox" x="0" y="0" width="20.9060381" height="14.4287634" fill="white">
            <use xlink:href="#path-1"></use>
        </mask>
        <circle id="path-3" cx="10.5" cy="7.5" r="3.5"></circle>
        <mask id="mask-4" maskContentUnits="userSpaceOnUse" maskUnits="objectBoundingBox" x="0" y="0" width="7" height="7" fill="white">
            <use xlink:href="#path-3"></use>
        </mask>
    </defs>
    <g id="Main" stroke="none" stroke-width="1" fill="none" fill-rule="evenodd" opacity="0.5">
        <g id="1" transform="translate(-156.000000, -319.000000)" stroke-width="2" stroke="#FFFFFF">
            <g id="news" transform="translate(135.000000, 74.000000)">
                <g id="1">
                    <g id="eye" transform="translate(21.000000, 245.000000)">
                        <use id="Oval" mask="url(#mask-2)" xlink:href="#path-1"></use>
                        <use id="Oval-2" mask="url(#mask-4)" xlink:href="#path-3"></use>
                    </g>
                </g>
            </g>
        </g>
    </g>
</svg>