<?xml version="1.0" encoding="UTF-8" standalone="no"?>
<svg width="48px" height="48px" viewBox="0 0 48 48" version="1.1" xmlns="http://www.w3.org/2000/svg" xmlns:xlink="http://www.w3.org/1999/xlink">
    <!-- Generator: Sketch 41.1 (35376) - http://www.bohemiancoding.com/sketch -->
    <title>vk</title>
    <desc>Created with Sketch.</desc>
    <defs></defs>
    <g id="Main" stroke="none" stroke-width="1" fill="none" fill-rule="evenodd">
        <g id="1" transform="translate(-261.000000, -3326.000000)">
            <g id="footer" transform="translate(0.000000, 3267.000000)">
                <g id="letf-content" transform="translate(135.000000, 60.000000)">
                    <g id="social" transform="translate(2.000000, 0.000000)">
                        <g id="vk" transform="translate(125.000000, 0.000000)">
                            <path d="M45.4197268,22.7098634 C45.4197268,35.2521561 35.2526049,45.419278 22.7103122,45.419278 C10.1680195,45.419278 -0.000224390244,35.2521561 -0.000224390244,22.7098634 C-0.000224390244,10.1675707 10.1680195,0.000448780488 22.7103122,0.000448780488 C35.2526049,0.000448780488 45.4197268,10.1675707 45.4197268,22.7098634 L45.4197268,22.7098634 Z" id="Stroke-1" stroke="#76787A" stroke-width="2"></path>
                            <path d="M32.4607415,22.3723805 C32.839961,21.8820878 33.1406439,21.4894049 33.3627902,21.1932098 C34.9626927,19.0659902 35.6560585,17.7061854 35.4440098,17.1137951 L35.3598634,16.9757951 C35.3048878,16.8916488 35.161278,16.8153561 34.9301561,16.7457951 C34.6990341,16.6773561 34.402839,16.6661366 34.0426927,16.7121366 L30.0463024,16.7401854 C29.9543024,16.7312098 29.8611805,16.7323317 29.7691805,16.7457951 C29.6771805,16.7603805 29.6165951,16.7749659 29.5885463,16.7884293 C29.5604976,16.8018927 29.5380585,16.8131122 29.5189854,16.8220878 L29.4640098,16.864722 C29.4180098,16.8916488 29.3664,16.9410146 29.3114244,17.0105756 C29.2564488,17.0801366 29.2093268,17.1597951 29.1723024,17.2529171 C28.7381073,18.3726244 28.2433268,19.4126732 27.687961,20.3741854 C27.3457659,20.9486244 27.0316195,21.4456488 26.7444,21.8663805 C26.4583024,22.2871122 26.2182049,22.5967707 26.0229854,22.7953561 C25.8288878,22.9939415 25.6538634,23.1543805 25.4967902,23.2744293 C25.3385951,23.394478 25.2185463,23.4449659 25.135522,23.4270146 C25.0524976,23.4079415 24.973961,23.3899902 24.8999122,23.3709171 C24.7697659,23.2878927 24.6665463,23.1745756 24.5880098,23.0309659 C24.5083512,22.888478 24.4556195,22.7078439 24.4275707,22.4901854 C24.4006439,22.2736488 24.3838146,22.085161 24.3793268,21.9280878 C24.374839,21.7710146 24.3770829,21.5488683 24.3871805,21.2616488 C24.3961561,20.9755512 24.4006439,20.7814537 24.4006439,20.6793561 C24.4006439,20.3281854 24.4073756,19.946722 24.420839,19.5349659 C24.4354244,19.1232098 24.4466439,18.7978439 24.4556195,18.5566244 C24.4645951,18.3165268 24.4702049,18.0618439 24.4702049,17.7936976 C24.4702049,17.5255512 24.4533756,17.3157463 24.420839,17.162039 C24.3883024,17.0105756 24.3400585,16.862478 24.2749854,16.7188683 C24.2110341,16.5752585 24.1156683,16.4641854 23.9911317,16.3856488 C23.8654732,16.3071122 23.7106439,16.2442829 23.5266439,16.1982829 C23.0352293,16.0872098 22.4114244,16.0277463 21.6529854,16.0176488 C19.9330341,15.9996976 18.8279122,16.1107707 18.3376195,16.3508683 C18.143522,16.4529659 17.9673756,16.5920878 17.8103024,16.7671122 C17.6431317,16.9713073 17.6206927,17.0823805 17.7407415,17.1003317 C18.2961073,17.1833561 18.6887902,17.3830634 18.9199122,17.6972098 L19.0029366,17.8632585 C19.0680098,17.9844293 19.131961,18.196478 19.1970341,18.5016488 C19.2621073,18.8068195 19.3036195,19.1445268 19.3226927,19.5147707 C19.3686927,20.1901854 19.3686927,20.7679902 19.3226927,21.2481854 C19.2766927,21.7295024 19.2329366,22.1042341 19.1903024,22.3723805 C19.1487902,22.6405268 19.0870829,22.8581854 19.0040585,23.0242341 C18.9199122,23.1914049 18.8649366,23.2923805 18.8368878,23.3294049 C18.808839,23.3664293 18.7864,23.3899902 18.7673268,23.3989659 C18.647278,23.4449659 18.5227415,23.4685268 18.3925951,23.4685268 C18.2635707,23.4685268 18.1064976,23.4034537 17.9213756,23.2733073 C17.7362537,23.1442829 17.5444,22.9658927 17.3458146,22.7392585 C17.1461073,22.5137463 16.922839,22.1962341 16.6726439,21.7889659 C16.4224488,21.3828195 16.163278,20.9015024 15.8951317,20.3461366 L15.6741073,19.944478 C15.5349854,19.6853073 15.3453756,19.3083317 15.105278,18.8135512 C14.8640585,18.3187707 14.6520098,17.8408195 14.4668878,17.3774537 C14.392839,17.1833561 14.2817659,17.0352585 14.1336683,16.933161 L14.0641073,16.8916488 C14.0181073,16.8546244 13.9440585,16.8153561 13.841961,16.7738439 C13.7409854,16.7323317 13.6344,16.702039 13.5233268,16.6840878 L9.7221561,16.7110146 C9.33283902,16.7110146 9.07030244,16.7996488 8.93118049,16.9757951 L8.87620488,17.0588195 C8.8481561,17.1048195 8.83357073,17.1788683 8.83357073,17.2809659 C8.83357073,17.3830634 8.86161951,17.5076 8.91771707,17.6545756 C9.47196098,18.9594049 10.0755707,20.2171122 10.7274244,21.4288195 C11.3804,22.6405268 11.9469854,23.6166244 12.4271805,24.3559902 C12.9084976,25.096478 13.3987902,25.7943317 13.8980585,26.4517951 C14.3984488,27.1081366 14.7283024,27.5288683 14.8898634,27.7139902 C15.0514244,27.8991122 15.1793268,28.0371122 15.2713268,28.1302341 L15.6180098,28.4634537 C15.8401561,28.684478 16.1666439,28.9503805 16.5963512,29.261161 C17.0271805,29.5708195 17.5028878,29.8759902 18.0257171,30.1766732 C18.5485463,30.4773561 19.1566439,30.7219415 19.8500098,30.9115512 C20.5433756,31.1022829 21.2187902,31.1785756 21.8751317,31.1404293 L23.4705463,31.1404293 C23.7947902,31.1135024 24.0393756,31.0114049 24.2065463,30.8352585 L24.261522,30.7668195 C24.2985463,30.710722 24.3333268,30.6254537 24.3658634,30.5098927 C24.3984,30.3943317 24.4141073,30.2664293 24.4141073,30.1284293 C24.4051317,29.7312585 24.4354244,29.3722341 24.5049854,29.0536 C24.5734244,28.7338439 24.6530829,28.4937463 24.7405951,28.3310634 C24.8281073,28.1695024 24.927961,28.0337463 25.0390341,27.9226732 C25.1501073,27.810478 25.2286439,27.7442829 25.2746439,27.720722 C25.3206439,27.6982829 25.3576683,27.6825756 25.3857171,27.672478 C25.6078634,27.5984293 25.869278,27.6702341 26.169961,27.8878927 C26.4706439,28.1055512 26.7522537,28.3725756 27.0159122,28.6923317 C27.2795707,29.0120878 27.595961,29.3699902 27.9662049,29.767161 C28.3364488,30.1654537 28.6595707,30.4616488 28.9378146,30.6557463 L29.2149366,30.8229171 C29.4000585,30.9328683 29.6401561,31.0349659 29.9363512,31.1269659 C30.2325463,31.2200878 30.4917171,31.2425268 30.7138634,31.1965268 L34.264839,31.1404293 C34.6160098,31.1404293 34.8897659,31.0832098 35.0838634,30.9676488 C35.277961,30.8532098 35.393522,30.7241854 35.4305463,30.5861854 C35.4675707,30.4470634 35.4698146,30.2911122 35.437278,30.1149659 C35.4047415,29.9388195 35.3722049,29.8165268 35.3407902,29.7469659 C35.3082537,29.6785268 35.277961,29.6201854 35.2499122,29.5741854 C34.7876683,28.7416976 33.9046927,27.7196 32.5998634,26.5078927 L32.5718146,26.4798439 L32.5583512,26.4663805 L32.5448878,26.4529171 L32.5314244,26.4529171 C31.9390341,25.8885756 31.5643024,25.5093561 31.4072293,25.3141366 C31.1200098,24.9450146 31.0560585,24.5702829 31.2131317,24.1910634 C31.3230829,23.9038439 31.7393268,23.2979902 32.4607415,22.3723805" id="Fill-3" fill="#76787A"></path>
                        </g>
                    </g>
                </g>
            </g>
        </g>
    </g>
</svg>