<?xml version="1.0" encoding="UTF-8" standalone="no"?>
<svg width="53px" height="52px" viewBox="0 0 53 52" version="1.1" xmlns="http://www.w3.org/2000/svg" xmlns:xlink="http://www.w3.org/1999/xlink">
    <!-- Generator: Sketch 41.1 (35376) - http://www.bohemiancoding.com/sketch -->
    <title>chat-icon</title>
    <desc>Created with Sketch.</desc>
    <defs>
        <filter x="-50%" y="-50%" width="200%" height="200%" filterUnits="objectBoundingBox" id="filter-1">
            <feOffset dx="0" dy="0" in="SourceAlpha" result="shadowOffsetOuter1"></feOffset>
            <feGaussianBlur stdDeviation="5" in="shadowOffsetOuter1" result="shadowBlurOuter1"></feGaussianBlur>
            <feColorMatrix values="0 0 0 0 0   0 0 0 0 0.439215686   0 0 0 0 1  0 0 0 0.2 0" type="matrix" in="shadowBlurOuter1" result="shadowMatrixOuter1"></feColorMatrix>
            <feMerge>
                <feMergeNode in="shadowMatrixOuter1"></feMergeNode>
                <feMergeNode in="SourceGraphic"></feMergeNode>
            </feMerge>
        </filter>
    </defs>
    <g id="Rating" stroke="none" stroke-width="1" fill="none" fill-rule="evenodd">
        <g id="1" transform="translate(0.000000, -142.000000)">
            <g id="chat" filter="url(#filter-1)" transform="translate(-1.000000, 134.000000)">
                <g id="chat-icon" transform="translate(10.000000, 18.000000)">
                    <path d="M29,11.2383 L29,23.7903 C29,25.4063 26.957,27.0003 25.354,27.0003 L12.951,27.0003 L7,33.2473 L7,27.0003 L2.902,27.0003 C1.299,27.0003 0,25.4063 0,23.7903 L0,11.2393 C0,9.6223 1.299,8.0003 2.902,8.0003 L25.354,8.0003 C26.957,8.0003 29,9.6223 29,11.2383" id="Fill-1" fill="#338FFF"></path>
                    <path d="M31.2408,0 L8.7878,0 C7.1858,0 5.9998,1.31 5.9998,2.927 L5.9998,8 L25.3538,8 C26.9568,8 28.9998,9.622 28.9998,11.239 L28.9998,18 L31.2408,18 C32.8428,18 33.9998,17.095 33.9998,15.478 L33.9998,2.927 C33.9998,1.31 32.8428,0 31.2408,0" id="Fill-3" fill="#D2E4FB"></path>
                    <path d="M7.6526,16.03 C8.6276,16.03 9.4186,16.827 9.4186,17.811 C9.4186,18.795 8.6276,19.592 7.6526,19.592 C6.6776,19.592 5.8866,18.795 5.8866,17.811 C5.8866,16.827 6.6776,16.03 7.6526,16.03" id="Fill-6" fill="#FFFFFF"></path>
                    <path d="M14.1279,16.03 C15.1029,16.03 15.8939,16.827 15.8939,17.811 C15.8939,18.795 15.1029,19.592 14.1279,19.592 C13.1529,19.592 12.3619,18.795 12.3619,17.811 C12.3619,16.827 13.1529,16.03 14.1279,16.03" id="Fill-8" fill="#FFFFFF"></path>
                    <path d="M20.6031,16.03 C21.5781,16.03 22.3691,16.827 22.3691,17.811 C22.3691,18.795 21.5781,19.592 20.6031,19.592 C19.6281,19.592 18.8371,18.795 18.8371,17.811 C18.8371,16.827 19.6281,16.03 20.6031,16.03" id="Fill-10" fill="#FFFFFF"></path>
                </g>
            </g>
        </g>
    </g>
</svg>