<?xml version="1.0" encoding="UTF-8" standalone="no"?>
<svg width="206px" height="116px" viewBox="0 0 206 116" version="1.1" xmlns="http://www.w3.org/2000/svg" xmlns:xlink="http://www.w3.org/1999/xlink">
    <!-- Generator: Sketch 41.1 (35376) - http://www.bohemiancoding.com/sketch -->
    <title>winner-icon</title>
    <desc>Created with Sketch.</desc>
    <defs>
        <linearGradient x1="672.320614%" y1="362.46054%" x2="672.320604%" y2="-323.549852%" id="linearGradient-1">
            <stop stop-color="#A6C3F2" offset="0%"></stop>
            <stop stop-color="#C3C5CA" offset="100%"></stop>
        </linearGradient>
    </defs>
    <g id="Rating" stroke="none" stroke-width="1" fill="none" fill-rule="evenodd">
        <g id="1" transform="translate(-380.000000, -286.000000)" fill="url(#linearGradient-1)">
            <g id="top" transform="translate(135.000000, 152.000000)">
                <g id="2" transform="translate(238.000000, 0.000000)">
                    <path d="M39.0311487,173.313317 C39.0311487,173.313317 22.2314814,178.671724 27.5082199,192.6399 C27.5130239,192.637979 38.6746902,190.194653 39.0311487,173.313317 Z M39.0311487,157.505777 C39.0311487,157.505777 23.8686923,159.845336 25.924814,173.396523 C25.9305788,173.394601 37.1585406,176.281819 39.0311487,157.505777 Z M63.8647752,208.705033 C63.8647752,208.705033 60.169521,223.59462 73.4641733,226.929573 C73.4641733,226.923808 80.4626735,217.680869 63.8647752,208.705033 Z M78.6492511,211.822171 C78.6492511,211.822171 74.95784,226.929861 87.2436476,230.086104 C87.2436476,230.080339 92.7663521,218.979204 78.6492511,211.822171 Z M51.4213957,205.730958 C51.4213957,205.730958 45.7190208,219.972964 58.429504,225.099817 C58.4304648,225.095013 66.6309315,216.898389 51.4213957,205.730958 Z M7.73034678,165.874 C12.8620038,185.240937 24.2014189,182.005908 24.2014189,182.005908 C24.092848,167.932043 7.73034678,165.874 7.73034678,165.874 Z M7.73034678,150.066555 C12.8620038,169.433492 24.2014189,166.198463 24.2014189,166.198463 C24.092848,152.124599 7.73034678,150.066555 7.73034678,150.066555 Z M7.53424658,180.026074 C12.6659036,199.393011 24.0053187,196.157982 24.0053187,196.157982 C23.8967478,182.084117 7.53424658,180.026074 7.53424658,180.026074 Z M9.5396378,196.945458 C16.5390988,215.718617 27.5086042,211.391154 27.5086042,211.391154 C26.025122,197.395114 9.5396378,196.945458 9.5396378,196.945458 Z M38.400957,190.194268 C23.9283583,198.939511 31.5677151,211.162867 31.5677151,211.162867 C42.6544386,203.501411 38.400957,190.194268 38.400957,190.194268 Z M45.9707516,201.451439 C34.1317181,208.084833 40.2280229,219.666371 40.2280229,219.666371 C50.8333833,216.421734 45.9707516,201.451439 45.9707516,201.451439 Z M26.573261,134.424658 C15.4163987,150.797728 26.3042357,157.624244 26.3042357,157.624244 C37.0565993,148.582112 26.573261,134.424658 26.573261,134.424658 Z M68.4850921,227.033628 C56.0321045,225.48385 54.6264475,241.752193 54.6264475,241.752193 C71.6547862,238.869779 68.4850921,227.033628 68.4850921,227.033628 Z M44.5961285,222.72173 C33.2509486,217.357558 26.8308527,232.371089 26.8308527,232.371089 C43.9072317,234.955654 44.5961285,222.72173 44.5961285,222.72173 Z M54.4928956,226.484624 C42.2877956,223.566661 39.0902381,239.579429 39.0902381,239.579429 C56.3337971,238.598448 54.4928956,226.484624 54.4928956,226.484624 Z M34.9608924,218.040209 C26.2175711,209.098962 16.132006,220.083841 16.132006,220.083841 C30.8448058,228.648452 34.9608924,218.040209 34.9608924,218.040209 Z M81.1397525,230.879825 C68.6886865,229.313713 67.260931,245.580134 67.260931,245.580134 C84.2940738,242.719819 81.1397525,230.879825 81.1397525,230.879825 Z M93.5566138,232.815942 C80.5156139,233.379934 83.031961,248.873868 83.031961,248.873868 C98.1896133,243.277182 93.5566138,232.815942 93.5566138,232.815942 Z M110.569003,211.125395 L116.76331,223.677346 L130.615229,225.68927 L120.592116,235.459692 L122.957617,249.254923 L110.569003,242.741629 L98.1803896,249.254923 L100.54589,235.459692 L90.5227774,225.68927 L104.374696,223.677346 L110.569003,211.125395 Z M181.207545,173.313317 C181.207545,173.313317 198.007212,178.671724 192.730474,192.6399 C192.72567,192.637979 181.564003,190.194653 181.207545,173.313317 Z M181.207545,157.505777 C181.207545,157.505777 196.370001,159.845336 194.313879,173.396523 C194.308115,173.394601 183.080153,176.281819 181.207545,157.505777 Z M156.529953,208.797174 C156.529953,208.797174 159.968672,223.748253 146.619254,226.853573 C146.619254,226.848769 139.780247,217.48669 156.529953,208.797174 Z M168.817298,205.730958 C168.817298,205.730958 174.519673,219.972964 161.809189,225.099817 C161.808229,225.095013 153.607762,216.898389 168.817298,205.730958 Z M212.508347,165.874 C207.37669,185.240937 196.037274,182.005908 196.037274,182.005908 C196.145845,167.932043 212.508347,165.874 212.508347,165.874 Z M212.508347,150.066555 C207.37669,169.433492 196.037274,166.198463 196.037274,166.198463 C196.145845,152.124599 212.508347,150.066555 212.508347,150.066555 Z M212.704447,180.026074 C207.57279,199.393011 196.233375,196.157982 196.233375,196.157982 C196.341946,182.084117 212.704447,180.026074 212.704447,180.026074 Z M210.699056,196.945458 C203.699595,215.718617 192.730089,211.391154 192.730089,211.391154 C194.213571,197.395114 210.699056,196.945458 210.699056,196.945458 Z M181.837736,190.194268 C196.310335,198.939511 188.670978,211.162867 188.670978,211.162867 C177.584255,203.501411 181.837736,190.194268 181.837736,190.194268 Z M174.268038,201.451439 C186.107071,208.084833 180.010767,219.666371 180.010767,219.666371 C169.405406,216.421734 174.268038,201.451439 174.268038,201.451439 Z M193.665432,134.424658 C204.822295,150.797728 193.934458,157.624244 193.934458,157.624244 C183.182094,148.582112 193.665432,134.424658 193.665432,134.424658 Z M151.753601,227.033628 C164.206589,225.48385 165.612246,241.752193 165.612246,241.752193 C148.583907,238.869779 151.753601,227.033628 151.753601,227.033628 Z M175.642565,222.72173 C186.987745,217.357558 193.407841,232.371089 193.407841,232.371089 C176.331462,234.955654 175.642565,222.72173 175.642565,222.72173 Z M165.745798,226.484624 C177.950898,223.566661 181.148455,239.579429 181.148455,239.579429 C163.904896,238.598448 165.745798,226.484624 165.745798,226.484624 Z M185.277801,218.040209 C194.021122,209.098962 204.106687,220.083841 204.106687,220.083841 C189.393888,228.648452 185.277801,218.040209 185.277801,218.040209 Z M138.894578,231.367625 C151.345644,229.801514 152.773399,246.067935 152.773399,246.067935 C135.740256,243.207619 138.894578,231.367625 138.894578,231.367625 Z M127.438521,233.303742 C140.479521,233.867735 137.963174,249.361669 137.963174,249.361669 C122.805522,243.764982 127.438521,233.303742 127.438521,233.303742 Z M142.163715,211.822171 C142.163715,211.822171 145.855126,226.929861 133.569319,230.086104 C133.569319,230.080339 128.046614,218.979204 142.163715,211.822171 Z" id="winner-icon"></path>
                </g>
            </g>
        </g>
    </g>
</svg>