<?xml version="1.0" encoding="UTF-8" standalone="no"?>
<svg width="249px" height="54px" viewBox="0 0 249 54" version="1.1" xmlns="http://www.w3.org/2000/svg" xmlns:xlink="http://www.w3.org/1999/xlink">
    <!-- Generator: Sketch 41.1 (35376) - http://www.bohemiancoding.com/sketch -->
    <title>logo</title>
    <desc>Created with Sketch.</desc>
    <defs>
        <linearGradient x1="49.8921454%" y1="100%" x2="49.8921454%" y2="0%" id="linearGradient-1">
            <stop stop-color="#338FFF" offset="0%"></stop>
            <stop stop-color="#9DC8FB" offset="100%"></stop>
        </linearGradient>
    </defs>
    <g id="Page-1" stroke="none" stroke-width="1" fill="none" fill-rule="evenodd">
        <g id="logo" transform="translate(-1.000000, 0.000000)">
            <path d="M71,1 L71,0 L60,0 L59,0 L59,1 L60,1 L71,1 Z M62,4.56813465 C59.1057427,5.77186287 56.737797,8.50544323 56,12 L54,12 L54,41 L45,41 L45,40 L45,11 L36,11 L36,28 L27,28 L27,25 L20,25 L20,40 L20,44 L13,44 L13,38 L7,38 L7,54 L134,54 L241,54 L241,11 L239,11 L239,6 L240,6 L240,5 L236,5 L231,5 L227,5 L221,5 L221,6 L222,6 L222,11 L220,11 L220,38 L208,38 L208,12 L199,12 L199,41 L191,41 L191,27 L184,27 L184,17 L176,17 L176,41 L168,41 L168,29 L166,29 L166,26 L168,26 L168,25 L166,25 L166,22 L168,22 L168,21 L166,21 L163,21 L163,5 L152,5 L152,42 L145,42 L145,45 L134,45 L134,39 L128,39 L128,45 L120,45 L120,36 L105,36 L105,44 L95,44 L95,33 L88,33 L88,38 L76,38 L76,12 L74,12 C73.4813381,8.4570874 71.0968408,5.69615856 68,4.51937654 L68,1.4 L68,1 L67,1 L67,1.4 L67,4.20142851 C66.6723333,4.11687868 66.3386001,4.04945773 66,4 L64,4 C63.6628063,4.05310449 63.3289873,4.12667798 63,4.2197056 L63,1.4 L63,1 L62,1 L62,1.4 L62,4.56813465 Z M163,26 L165,26 L165,29 L163,29 L163,26 Z M163,22 L165,22 L165,25 L163,25 L163,22 Z M231,6 L234,6 L234,11 L231,11 L231,6 Z M235,6 L238,6 L238,11 L235,11 L235,6 Z M227,6 L230,6 L230,11 L227,11 L227,6 Z M223,6 L226,6 L226,11 L223,11 L223,6 Z" id="Combined-Shape" fill="#E6F1FF"></path>
            <text id="ZEUS-CYBER-SCHOOL" fill="url(#linearGradient-1)" font-family="DIN-BoldAlternate, DIN" font-size="26" font-weight="bold">
                <tspan x="0" y="34">ZEUS CYBER SCHOOL</tspan>
            </text>
        </g>
    </g>
</svg>