<?xml version="1.0" encoding="UTF-8" standalone="no"?>
<svg width="249px" height="54px" viewBox="0 0 249 54" version="1.1" xmlns="http://www.w3.org/2000/svg" xmlns:xlink="http://www.w3.org/1999/xlink">
    <!-- Generator: Sketch 41.1 (35376) - http://www.bohemiancoding.com/sketch -->
    <title>logo</title>
    <desc>Created with Sketch.</desc>
    <defs>
        <linearGradient x1="42.9292947%" y1="100%" x2="42.9292946%" y2="0%" id="linearGradient-1">
            <stop stop-color="#338FFF" offset="0%"></stop>
            <stop stop-color="#9DC8FB" offset="100%"></stop>
        </linearGradient>
    </defs>
    <g id="Main" stroke="none" stroke-width="1" fill="none" fill-rule="evenodd">
        <g id="1" transform="translate(-135.000000, -6.000000)">
            <g id="header" transform="translate(-1.000000, 0.000000)">
                <g id="logo" transform="translate(135.000000, 6.000000)">
                    <path d="M63,0.5 L63,0 L62,0 L62,0.5 L62,9.5 L62,10 L63,10 L63,9.5 L63,0.5 Z M68,0.5 L68,0 L67,0 L67,0.5 L67,9.5 L67,10 L68,10 L68,9.5 L68,0.5 Z M70.5,1 L71,1 L71,0 L70.5,0 L59.5,0 L59,0 L59,1 L59.5,1 L70.5,1 Z M242.063952,53.708842 L242.063952,10.6657065 L239.971711,10.6657065 L239.971711,4.43965703 L241.094004,4.43667839 L241.094004,3.67300037 L235.790423,3.68651882 L231.372406,3.69774601 L226.591998,3.71011883 L220.738559,3.72501204 L220.738559,4.48869006 L222.106931,4.48525317 L222.106931,10.6657065 L219.867819,10.6657065 L219.867819,37.5552566 L208.095715,37.5552566 L208.095715,11.5293708 L199.398903,11.5293708 L199.398903,40.3104515 L191.187427,40.3104515 L191.187427,26.368115 L183.970862,26.368115 L183.970862,17.1536146 L175.902485,17.1536146 L175.902485,40.8779973 L168.237549,40.8779973 L168.237549,28.646318 L166.079627,28.646318 L166.079627,25.8864915 L167.887246,25.881909 L167.887246,25.1180018 L166.079627,25.1225843 L166.079627,21.2785321 L167.887246,21.2739496 L167.887246,20.5100424 L166.079627,20.514625 L163.114821,20.5221861 L163.114821,4.22855541 L151.939783,4.22855541 L151.939783,41.4049879 L144.639975,41.4049879 L144.639975,44.994939 L133.9165,44.994939 L133.9165,38.23604 L127.819947,38.23604 L127.819947,44.4679485 L120.154784,44.4679485 L120.154784,36.1056235 L104.869841,35.9580662 L104.869841,43.9004026 L94.6583657,43.9004026 L94.6583657,33.1195511 L87.9615535,33.1195511 L87.9615535,38.1452078 L76.1896778,38.1452078 L76.1896778,11.4503065 L74.0705258,11.4503065 C73.3922694,7.40095711 70.0493368,4.2623848 65.914801,3.91617494 L64.3876979,3.91663319 C60.2558988,4.26536344 56.915703,7.40279012 56.2379027,11.4503065 L53.9933166,11.4503065 L53.9933166,40.8333177 L44.7146146,40.8333177 L44.7146146,39.6042841 L44.7146146,10.6912868 L36.4847696,10.6912868 L36.4847696,27.7282088 L27.0448278,27.7522671 L27.0448278,24.3648636 L19.8264378,24.3648636 L19.8264378,39.6042841 L19.8264378,43.6621112 L13.0771678,43.6621112 L13.0771678,37.4753399 L7,37.4753399 L7,53.708842 L133.9165,53.708842 L242.063952,53.708842 Z M163.114821,25.8940527 L165.319496,25.8883245 L165.319496,28.646318 L163.114821,28.646318 L163.114821,25.8940527 Z M163.114821,21.2860933 L165.319496,21.2805942 L165.319496,25.1246465 L163.114821,25.1301455 L163.114821,21.2860933 Z M231.372406,4.46142403 L235.030292,4.45225898 L235.030292,10.6657065 L231.372406,10.6657065 L231.372406,4.46142403 Z M235.790423,4.45019684 L239.211581,4.44149004 L239.211581,10.6657065 L235.790423,10.6657065 L235.790423,4.45019684 Z M226.591998,4.47379685 L230.612275,4.46348617 L230.612275,10.6657065 L226.591998,10.6657065 L226.591998,4.47379685 Z M222.867062,4.48319103 L225.831868,4.47562986 L225.831868,10.6657065 L222.867062,10.6657065 L222.867062,4.48319103 Z" id="Combined-Shape" fill="#E6F1FF"></path>
                    <text id="ZEUS-CYBER-SCHOOL" fill="url(#linearGradient-1)" font-family="DIN-BoldAlternate, DIN" font-size="26" font-weight="bold">
                        <tspan x="0" y="34">ZEUS CYBER SCHOOL</tspan>
                    </text>
                </g>
            </g>
        </g>
    </g>
</svg>