<?xml version="1.0" encoding="UTF-8" standalone="no"?>
<svg width="44px" height="46px" viewBox="0 0 44 46" version="1.1" xmlns="http://www.w3.org/2000/svg" xmlns:xlink="http://www.w3.org/1999/xlink">
    <!-- Generator: Sketch 41.1 (35376) - http://www.bohemiancoding.com/sketch -->
    <title>medal-bronze</title>
    <desc>Created with Sketch.</desc>
    <defs>
        <linearGradient x1="672.320614%" y1="362.46054%" x2="672.320604%" y2="-323.549852%" id="linearGradient-1">
            <stop stop-color="#C8804C" offset="0%"></stop>
            <stop stop-color="#CAC6C3" offset="100%"></stop>
        </linearGradient>
        <path d="M23.566,34.9522 L18.984,32.5432 L14.402,34.9522 L15.277,29.8502 L11.57,26.2362 L16.693,25.4922 L18.984,20.8502 L21.275,25.4922 L26.398,26.2362 L22.691,29.8502 L23.566,34.9522 Z M18.984,15.3362 C11.657,15.3362 5.718,21.2752 5.718,28.6012 C5.718,35.9282 11.657,41.8672 18.984,41.8672 C26.31,41.8672 32.25,35.9282 32.25,28.6012 C32.25,21.2752 26.31,15.3362 18.984,15.3362 L18.984,15.3362 Z" id="path-2"></path>
        <mask id="mask-3" maskContentUnits="userSpaceOnUse" maskUnits="objectBoundingBox" x="-2" y="-2" width="30.532" height="30.531">
            <rect x="3.718" y="13.3362" width="30.532" height="30.531" fill="white"></rect>
            <use xlink:href="#path-2" fill="black"></use>
        </mask>
        <path d="M4.5805,0 L0.9995,0 L10.4785,14.669 C11.3315,14.136 12.2475,13.697 13.2165,13.368 L4.5805,0 Z" id="path-4"></path>
        <mask id="mask-5" maskContentUnits="userSpaceOnUse" maskUnits="objectBoundingBox" x="-2" y="-2" width="16.217" height="18.669">
            <rect x="-1.0005" y="-2" width="16.217" height="18.669" fill="white"></rect>
            <use xlink:href="#path-4" fill="black"></use>
        </mask>
        <path d="M19.7978,12.7196 L11.5808,-0.0004 L7.9998,-0.0004 L16.3018,12.8476 C17.0138,12.7296 17.7388,12.6536 18.4838,12.6536 C18.9278,12.6536 19.3658,12.6766 19.7978,12.7196" id="path-6"></path>
        <mask id="mask-7" maskContentUnits="userSpaceOnUse" maskUnits="objectBoundingBox" x="-2" y="-2" width="15.798" height="16.848">
            <rect x="5.9998" y="-2.0004" width="15.798" height="16.848" fill="white"></rect>
            <use xlink:href="#path-6" fill="black"></use>
        </mask>
        <path d="M36.9679,0 L33.3869,0 L24.7519,13.368 C25.7199,13.697 26.6359,14.136 27.4899,14.669 L36.9679,0 Z" id="path-8"></path>
        <mask id="mask-9" maskContentUnits="userSpaceOnUse" maskUnits="objectBoundingBox" x="-2" y="-2" width="16.216" height="18.669">
            <rect x="22.7519" y="-2" width="16.216" height="18.669" fill="white"></rect>
            <use xlink:href="#path-8" fill="black"></use>
        </mask>
        <polygon id="path-10" points="29.9679 0 26.3869 0 20.6489 8.883 22.4379 11.653"></polygon>
        <mask id="mask-11" maskContentUnits="userSpaceOnUse" maskUnits="objectBoundingBox" x="-2" y="-2" width="13.319" height="15.653">
            <rect x="18.6489" y="-2" width="13.319" height="15.653" fill="white"></rect>
            <use xlink:href="#path-10" fill="black"></use>
        </mask>
    </defs>
    <g id="Rating" stroke="none" stroke-width="1" fill="none" fill-rule="evenodd">
        <g id="1" transform="translate(-274.000000, -586.000000)">
            <g id="top" transform="translate(135.000000, 152.000000)">
                <g id="1">
                    <g id="medals" transform="translate(17.000000, 408.000000)">
                        <g id="medal-bronze" transform="translate(125.000000, 28.000000)">
                            <g id="Fill-1">
                                <use fill="url(#linearGradient-1)" fill-rule="evenodd" xlink:href="#path-2"></use>
                                <use stroke="#FFFFFF" mask="url(#mask-3)" stroke-width="4" xlink:href="#path-2"></use>
                            </g>
                            <g id="Fill-3">
                                <use fill="url(#linearGradient-1)" fill-rule="evenodd" xlink:href="#path-4"></use>
                                <use stroke="#FFFFFF" mask="url(#mask-5)" stroke-width="4" xlink:href="#path-4"></use>
                            </g>
                            <g id="Fill-6">
                                <use fill="url(#linearGradient-1)" fill-rule="evenodd" xlink:href="#path-6"></use>
                                <use stroke="#FFFFFF" mask="url(#mask-7)" stroke-width="4" xlink:href="#path-6"></use>
                            </g>
                            <g id="Fill-9">
                                <use fill="url(#linearGradient-1)" fill-rule="evenodd" xlink:href="#path-8"></use>
                                <use stroke="#FFFFFF" mask="url(#mask-9)" stroke-width="4" xlink:href="#path-8"></use>
                            </g>
                            <g id="Fill-12">
                                <use fill="url(#linearGradient-1)" fill-rule="evenodd" xlink:href="#path-10"></use>
                                <use stroke="#FFFFFF" mask="url(#mask-11)" stroke-width="4" xlink:href="#path-10"></use>
                            </g>
                        </g>
                    </g>
                </g>
            </g>
        </g>
    </g>
</svg>