<?xml version="1.0" encoding="UTF-8" standalone="no"?>
<svg width="36px" height="42px" viewBox="0 0 36 42" version="1.1" xmlns="http://www.w3.org/2000/svg" xmlns:xlink="http://www.w3.org/1999/xlink">
    <!-- Generator: Sketch 41.1 (35376) - http://www.bohemiancoding.com/sketch -->
    <title>medal-none</title>
    <desc>Created with Sketch.</desc>
    <defs></defs>
    <g id="Rating" stroke="none" stroke-width="1" fill="none" fill-rule="evenodd">
        <g id="1" transform="translate(-1178.000000, -588.000000)" fill="#D0E5FF">
            <g id="top" transform="translate(135.000000, 152.000000)">
                <g id="5" transform="translate(950.000000, 0.000000)">
                    <g id="medal-none" transform="translate(92.000000, 436.000000)">
                        <path d="M18.984,15.3362 C11.657,15.3362 5.718,21.2752 5.718,28.6012 C5.718,35.9282 11.657,41.8672 18.984,41.8672 C26.31,41.8672 32.25,35.9282 32.25,28.6012 C32.25,21.2752 26.31,15.3362 18.984,15.3362 L18.984,15.3362 Z" id="Fill-1"></path>
                        <path d="M4.5805,0 L0.9995,0 L10.4785,14.669 C11.3315,14.136 12.2475,13.697 13.2165,13.368 L4.5805,0 Z" id="Fill-3"></path>
                        <path d="M19.7978,12.7196 L11.5808,-0.0004 L7.9998,-0.0004 L16.3018,12.8476 C17.0138,12.7296 17.7388,12.6536 18.4838,12.6536 C18.9278,12.6536 19.3658,12.6766 19.7978,12.7196" id="Fill-6"></path>
                        <path d="M36.9679,0 L33.3869,0 L24.7519,13.368 C25.7199,13.697 26.6359,14.136 27.4899,14.669 L36.9679,0 Z" id="Fill-9"></path>
                        <polygon id="Fill-12" points="29.9679 0 26.3869 0 20.6489 8.883 22.4379 11.653"></polygon>
                    </g>
                </g>
            </g>
        </g>
    </g>
</svg>